<?xml version="1.0" encoding="UTF-8" standalone="no"?>
<!-- Created with Inkscape (http://www.inkscape.org/) -->
<svg
   xmlns:dc="http://purl.org/dc/elements/1.1/"
   xmlns:cc="http://creativecommons.org/ns#"
   xmlns:rdf="http://www.w3.org/1999/02/22-rdf-syntax-ns#"
   xmlns:svg="http://www.w3.org/2000/svg"
   xmlns="http://www.w3.org/2000/svg"
   xmlns:sodipodi="http://sodipodi.sourceforge.net/DTD/sodipodi-0.dtd"
   xmlns:inkscape="http://www.inkscape.org/namespaces/inkscape"
   width="744.09448819"
   height="1052.3622047"
   id="svg2"
   sodipodi:version="0.32"
   inkscape:version="0.46"
   sodipodi:docname="logo.svg"
   inkscape:output_extension="org.inkscape.output.svg.inkscape"
   inkscape:export-filename="/home/alban/share/projects/kolaka.org/bonnes-ondes/trunk/templates/radioxfam/media/logo.png"
   inkscape:export-xdpi="72.00943"
   inkscape:export-ydpi="72.00943">
  <defs
     id="defs4">
    <inkscape:perspective
       sodipodi:type="inkscape:persp3d"
       inkscape:vp_x="0 : 526.18109 : 1"
       inkscape:vp_y="0 : 1000 : 0"
       inkscape:vp_z="744.09448 : 526.18109 : 1"
       inkscape:persp3d-origin="372.04724 : 350.78739 : 1"
       id="perspective10" />
    <inkscape:perspective
       id="perspective2447"
       inkscape:persp3d-origin="372.04724 : 350.78739 : 1"
       inkscape:vp_z="744.09448 : 526.18109 : 1"
       inkscape:vp_y="0 : 1000 : 0"
       inkscape:vp_x="0 : 526.18109 : 1"
       sodipodi:type="inkscape:persp3d" />
    <inkscape:perspective
       id="perspective2497"
       inkscape:persp3d-origin="372.04724 : 350.78739 : 1"
       inkscape:vp_z="744.09448 : 526.18109 : 1"
       inkscape:vp_y="0 : 1000 : 0"
       inkscape:vp_x="0 : 526.18109 : 1"
       sodipodi:type="inkscape:persp3d" />
  </defs>
  <sodipodi:namedview
     id="base"
     pagecolor="#ffffff"
     bordercolor="#666666"
     borderopacity="1.0"
     gridtolerance="10000"
     guidetolerance="10"
     objecttolerance="10"
     inkscape:pageopacity="0.0"
     inkscape:pageshadow="2"
     inkscape:zoom="1.7659422"
     inkscape:cx="211.25234"
     inkscape:cy="894.05482"
     inkscape:document-units="px"
     inkscape:current-layer="layer1"
     showgrid="false"
     showguides="true"
     inkscape:guide-bbox="true"
     inkscape:window-width="1280"
     inkscape:window-height="751"
     inkscape:window-x="0"
     inkscape:window-y="25" />
  <metadata
     id="metadata7">
    <rdf:RDF>
      <cc:Work
         rdf:about="">
        <dc:format>image/svg+xml</dc:format>
        <dc:type
           rdf:resource="http://purl.org/dc/dcmitype/StillImage" />
      </cc:Work>
    </rdf:RDF>
  </metadata>
  <g
     inkscape:label="Layer 1"
     inkscape:groupmode="layer"
     id="layer1">
    <g
       id="g3361"
       transform="matrix(1.1747319,0,0,1.1747319,-10.212896,-7.7285835)"
       inkscape:export-filename="/home/alban/share/projects/kolaka.org/bonnes-ondes/trunk/templates/radioxfam/media/logo.png"
       inkscape:export-xdpi="72.00943"
       inkscape:export-ydpi="72.00943">
      <g
         transform="matrix(0.8814339,0,0,0.8814339,31.899501,-161.10735)"
         id="g2529">
        <path
           sodipodi:nodetypes="ccscccccccccccscccccccscccsscscccccccccscscccccsscccsccccccccsscscsccccscscscccccccccccc"
           style="font-size:48px;font-style:normal;font-variant:normal;font-weight:bold;font-stretch:normal;text-align:start;line-height:125%;writing-mode:lr-tb;text-anchor:start;fill:#000000;fill-opacity:1;stroke:none;stroke-width:1px;stroke-linecap:butt;stroke-linejoin:miter;stroke-opacity:1;font-family:LMMathExtension10;-inkscape-font-specification:LMMathExtension10 Bold"
           d="M 120.09031,270.77499 C 121.98091,270.77501 123.33247,270.42345 124.14499,269.72031 C 124.9731,269.0172 125.38716,267.86095 125.38718,266.25156 C 125.38716,264.65783 124.9731,263.51721 124.14499,262.82968 C 123.33247,262.14221 121.98091,261.79846 120.09031,261.79843 L 116.29343,261.79843 L 116.29343,270.77499 L 120.09031,270.77499 M 116.29343,277.00937 L 116.29343,290.25156 L 107.26999,290.25156 L 107.26999,255.25937 L 121.05124,255.25937 C 125.6606,255.2594 129.03559,256.03284 131.17624,257.57968 C 133.33246,259.12659 134.41059,261.5719 134.41062,264.91562 C 134.41059,267.22814 133.84809,269.12658 132.72312,270.61093 C 131.61372,272.09532 129.93403,273.18907 127.68406,273.89218 C 128.91841,274.17345 130.01997,274.81407 130.98874,275.81406 C 131.97309,276.79844 132.96528,278.29844 133.96531,280.31406 L 138.86374,290.25156 L 129.25437,290.25156 L 124.98874,281.55624 C 124.12935,279.80625 123.25435,278.61094 122.36374,277.97031 C 121.48873,277.32969 120.31685,277.00938 118.84812,277.00937 L 116.29343,277.00937 M 151.79419,278.43906 C 150.04418,278.43907 148.72386,278.73594 147.83325,279.32968 C 146.95824,279.92344 146.52074,280.79844 146.52075,281.95468 C 146.52074,283.01719 146.8723,283.85313 147.57544,284.46249 C 148.29418,285.05625 149.28636,285.35312 150.552,285.35312 C 152.13011,285.35312 153.45823,284.79062 154.53638,283.66562 C 155.61448,282.525 156.15354,281.10313 156.15356,279.39999 L 156.15356,278.43906 L 151.79419,278.43906 M 164.6145,275.27499 L 164.6145,290.25156 L 156.15356,290.25156 L 156.15356,286.36093 C 155.02855,287.95468 153.76292,289.11875 152.35669,289.85312 C 150.95042,290.57187 149.23949,290.93124 147.22388,290.93124 C 144.50512,290.93124 142.29418,290.14218 140.59106,288.56406 C 138.90356,286.97031 138.05981,284.90781 138.05981,282.37656 C 138.05981,279.29844 139.1145,277.04063 141.22388,275.60312 C 143.34887,274.16563 146.67699,273.44689 151.20825,273.44687 L 156.15356,273.44687 L 156.15356,272.79062 C 156.15354,271.46251 155.63011,270.49376 154.58325,269.88437 C 153.53636,269.25939 151.90355,268.94689 149.68481,268.94687 C 147.88793,268.94689 146.21605,269.12658 144.66919,269.48593 C 143.12231,269.84533 141.68481,270.38439 140.35669,271.10312 L 140.35669,264.70468 C 142.15356,264.26721 143.95824,263.93908 145.77075,263.72031 C 147.58324,263.48596 149.39574,263.36877 151.20825,263.36874 C 155.94261,263.36877 159.35667,264.30627 161.45044,266.18124 C 163.55979,268.04064 164.61447,271.07189 164.6145,275.27499 M 187.12213,267.84531 L 187.12213,253.78281 L 195.55963,253.78281 L 195.55963,290.25156 L 187.12213,290.25156 L 187.12213,286.45468 C 185.96586,288.00156 184.69242,289.13437 183.30182,289.85312 C 181.91118,290.57187 180.3018,290.93124 178.47369,290.93124 C 175.23931,290.93124 172.58306,289.64999 170.50494,287.08749 C 168.42681,284.50937 167.38775,281.19688 167.38775,277.14999 C 167.38775,273.10314 168.42681,269.79845 170.50494,267.23593 C 172.58306,264.65783 175.23931,263.36877 178.47369,263.36874 C 180.28618,263.36877 181.88774,263.73596 183.27838,264.47031 C 184.68461,265.18908 185.96586,266.31408 187.12213,267.84531 M 181.59088,284.83749 C 183.38774,284.8375 184.75492,284.18125 185.69244,282.86874 C 186.64555,281.55625 187.12211,279.65 187.12213,277.14999 C 187.12211,274.65001 186.64555,272.74376 185.69244,271.43124 C 184.75492,270.11876 183.38774,269.46251 181.59088,269.46249 C 179.80961,269.46251 178.44243,270.11876 177.48932,271.43124 C 176.55181,272.74376 176.08306,274.65001 176.08307,277.14999 C 176.08306,279.65 176.55181,281.55625 177.48932,282.86874 C 178.44243,284.18125 179.80961,284.8375 181.59088,284.83749 M 199.86508,264.00156 L 208.25571,264.00156 L 208.25571,290.25156 L 199.86508,290.25156 L 199.86508,264.00156 M 199.86508,253.78281 L 208.25571,253.78281 L 208.25571,260.62656 L 199.86508,260.62656 L 199.86508,253.78281"
           id="text2524" />
      </g>
      <path
         sodipodi:nodetypes="csssssssccsssscsccccccccccccccccccsccccccccccccccccsscscccccccccscscccccsscccscccsssccccsssscccccsssccccccsssc"
         id="text3336"
         d="M 234.11404,70.46542 C 231.81689,70.46544 230.03531,71.31382 228.76929,73.01054 C 227.50325,74.70731 226.87023,77.0958 226.87024,80.17604 C 226.87023,83.24324 227.50325,85.62521 228.76929,87.32195 C 230.03531,89.01871 231.81689,89.86708 234.11404,89.86707 C 236.42421,89.86708 238.21232,89.01871 239.47838,87.32195 C 240.74439,85.62521 241.3774,83.24324 241.37743,80.17604 C 241.3774,77.0958 240.74439,74.70731 239.47838,73.01054 C 238.21232,71.31382 236.42421,70.46544 234.11404,70.46542 M 234.11404,65.0032 C 238.81271,65.00323 242.49334,66.34757 245.15595,69.03624 C 247.81851,71.72495 249.1498,75.43821 249.14984,80.17604 C 249.1498,84.90083 247.81851,88.60757 245.15595,91.29626 C 242.49334,93.98495 238.81271,95.32929 234.11404,95.32929 C 229.4284,95.32929 225.74777,93.98495 223.07213,91.29626 C 220.40954,88.60757 219.07825,84.90083 219.07825,80.17604 C 219.07825,75.43821 220.40954,71.72495 223.07213,69.03624 C 225.74777,66.34757 229.4284,65.00323 234.11404,65.0032 M 258.35589,83.54343 L 250.44644,72.83434 L 257.86645,72.83434 L 262.34977,79.33419 L 266.89184,72.83434 L 274.31184,72.83434 L 266.40239,83.50427 L 274.7034,94.76154 L 267.28339,94.76154 L 262.34977,87.83098 L 257.47489,94.76154 L 250.05488,94.76154 L 258.35589,83.54343 M 293.08701,64.29839 L 293.08701,68.89919 L 289.21059,68.89919 C 288.21864,68.89922 287.52688,69.08194 287.13534,69.44737 C 286.74377,69.7998 286.54799,70.41976 286.548,71.30727 L 286.548,72.83434 L 292.53883,72.83434 L 292.53883,77.84627 L 286.548,77.84627 L 286.548,94.76154 L 279.53913,94.76154 L 279.53913,77.84627 L 276.05427,77.84627 L 276.05427,72.83434 L 279.53913,72.83434 L 279.53913,71.30727 C 279.53913,68.91879 280.20477,67.15679 281.53607,66.02125 C 282.86736,64.87271 284.92956,64.29842 287.72268,64.29839 L 293.08701,64.29839 M 304.25085,84.8943 C 302.78903,84.89431 301.68614,85.14229 300.9422,85.63826 C 300.21128,86.13424 299.84583,86.86514 299.84584,87.83098 C 299.84583,88.71851 300.13949,89.41679 300.72684,89.92581 C 301.32722,90.42178 302.15601,90.66977 303.21323,90.66977 C 304.53146,90.66977 305.64087,90.1999 306.54146,89.26016 C 307.44203,88.30738 307.89232,87.11966 307.89233,85.69699 L 307.89233,84.8943 L 304.25085,84.8943 M 314.95994,82.25129 L 314.95994,94.76154 L 307.89233,94.76154 L 307.89233,91.51161 C 306.95258,92.84291 305.89538,93.81528 304.72072,94.42871 C 303.54604,95.0291 302.11686,95.32929 300.43317,95.32929 C 298.16213,95.32929 296.31529,94.67017 294.89264,93.35193 C 293.48303,92.02064 292.77823,90.29779 292.77823,88.18338 C 292.77823,85.61216 293.65923,83.72616 295.42124,82.52538 C 297.19629,81.32462 299.97635,80.72423 303.76141,80.72421 L 307.89233,80.72421 L 307.89233,80.17604 C 307.89232,79.06664 307.45508,78.25742 306.58062,77.74838 C 305.70613,77.22632 304.3422,76.96528 302.48885,76.96527 C 300.98787,76.96528 299.59132,77.11538 298.29919,77.41556 C 297.00704,77.71577 295.80627,78.16606 294.69686,78.76643 L 294.69686,73.42167 C 296.19782,73.05624 297.70532,72.78215 299.21934,72.59941 C 300.73336,72.40365 302.24738,72.30576 303.76141,72.30574 C 307.71612,72.30576 310.56796,73.08887 312.31693,74.65508 C 314.07891,76.20827 314.95992,78.74034 314.95994,82.25129 M 338.44271,76.47582 C 339.33022,75.11844 340.38089,74.08734 341.59475,73.38252 C 342.8216,72.66469 344.16594,72.30576 345.62779,72.30574 C 348.14677,72.30576 350.0654,73.08235 351.38368,74.6355 C 352.70188,76.1887 353.361,78.44667 353.36104,81.40944 L 353.36104,94.76154 L 346.31301,94.76154 L 346.31301,83.32807 C 346.32603,83.15841 346.33256,82.98221 346.33259,82.79947 C 346.34561,82.61675 346.35213,82.35572 346.35217,82.01635 C 346.35213,80.46319 346.12373,79.34073 345.66694,78.64896 C 345.21009,77.94418 344.47266,77.59178 343.45464,77.59176 C 342.12332,77.59178 341.09222,78.13995 340.36134,79.2363 C 339.64346,80.33267 339.27148,81.91848 339.2454,83.99372 L 339.2454,94.76154 L 332.19738,94.76154 L 332.19738,83.32807 C 332.19736,80.90043 331.98853,79.34073 331.57089,78.64896 C 331.15321,77.94418 330.40925,77.59178 329.33901,77.59176 C 327.99465,77.59178 326.95703,78.14648 326.22613,79.25588 C 325.49521,80.35225 325.12976,81.925 325.12977,83.97414 L 325.12977,94.76154 L 318.08174,94.76154 L 318.08174,72.83434 L 325.12977,72.83434 L 325.12977,76.04511 C 325.99119,74.8052 326.9766,73.87199 328.08603,73.24547 C 329.20848,72.61901 330.44188,72.30576 331.78624,72.30574 C 333.30024,72.30576 334.63806,72.67121 335.7997,73.4021 C 336.9613,74.13302 337.8423,75.1576 338.44271,76.47582"
         style="font-size:40.09544754px;font-style:normal;font-variant:normal;font-weight:bold;font-stretch:normal;text-align:start;line-height:125%;writing-mode:lr-tb;text-anchor:start;fill:#93bf22;fill-opacity:1;stroke:none;stroke-width:1px;stroke-linecap:butt;stroke-linejoin:miter;stroke-opacity:1;font-family:LMMathExtension10;-inkscape-font-specification:LMMathExtension10 Bold" />
    </g>
    <g
       id="g3353"
       transform="matrix(1.2970319,0,0,1.2970319,-314.79795,-117.39415)"
       inkscape:export-filename="/home/alban/share/projects/kolaka.org/bonnes-ondes/trunk/templates/radioxfam/media/logo.png"
       inkscape:export-xdpi="72.00943"
       inkscape:export-ydpi="72.00943">
      <rect
         y="121.33719"
         x="282.69183"
         height="69.45256"
         width="53.855598"
         id="rect3330"
         style="opacity:1;fill:#000000;fill-opacity:1;stroke:none;stroke-width:1;stroke-linecap:butt;stroke-linejoin:miter;stroke-miterlimit:0;stroke-dasharray:none;stroke-dashoffset:0;stroke-opacity:1" />
      <path
         transform="matrix(0.7344587,0,0,0.7344587,122.06561,30.105801)"
         d="M 273.48231,163.34448 A 18.118704,18.118704 0 1 1 237.2449,163.34448 A 18.118704,18.118704 0 1 1 273.48231,163.34448 z"
         sodipodi:ry="18.118704"
         sodipodi:rx="18.118704"
         sodipodi:cy="163.34448"
         sodipodi:cx="255.3636"
         id="path2538"
         style="fill:none;fill-opacity:1;stroke:#85b932;stroke-width:13.61546993;stroke-linecap:round;stroke-linejoin:round;stroke-miterlimit:4;stroke-dasharray:none;stroke-dashoffset:0;stroke-opacity:1"
         sodipodi:type="arc" />
      <path
         sodipodi:open="true"
         sodipodi:end="6.3006386"
         sodipodi:start="3.0892328"
         transform="matrix(0.7344587,0,0,0.7344587,122.06564,59.237942)"
         d="M 237.26973,164.29274 A 18.118704,18.118704 0 1 1 273.47955,163.6607"
         sodipodi:ry="18.118704"
         sodipodi:rx="18.118704"
         sodipodi:cy="163.34448"
         sodipodi:cx="255.3636"
         id="path3320"
         style="fill:none;fill-opacity:1;stroke:#85b932;stroke-width:13.61546993;stroke-linecap:butt;stroke-linejoin:miter;stroke-miterlimit:0;stroke-dasharray:none;stroke-dashoffset:0;stroke-opacity:1"
         sodipodi:type="arc" />
      <rect
         y="129.15398"
         x="307.91788"
         height="16.016525"
         width="3.4035034"
         id="rect3326"
         style="fill:#85b932;fill-opacity:1;stroke:#000000;stroke-width:1;stroke-linecap:butt;stroke-linejoin:miter;stroke-miterlimit:0;stroke-dasharray:none;stroke-dashoffset:0;stroke-opacity:1" />
      <path
         id="path3328"
         d="M 289.89927,149.37486 L 329.33999,149.37486"
         style="fill:none;fill-opacity:0.75;fill-rule:evenodd;stroke:#000000;stroke-width:2;stroke-linecap:butt;stroke-linejoin:miter;stroke-miterlimit:4;stroke-dasharray:none;stroke-opacity:1" />
      <path
         id="path3351"
         d="M 289.89927,182.26193 L 329.33999,182.26193"
         style="fill:none;fill-opacity:0.75;fill-rule:evenodd;stroke:#000000;stroke-width:2;stroke-linecap:butt;stroke-linejoin:miter;stroke-miterlimit:4;stroke-dasharray:none;stroke-opacity:1" />
    </g>
  </g>
</svg>
