<?xml version="1.0" encoding="UTF-8" standalone="no"?>
<!-- Created with Inkscape (http://www.inkscape.org/) -->
<svg
   xmlns:dc="http://purl.org/dc/elements/1.1/"
   xmlns:cc="http://creativecommons.org/ns#"
   xmlns:rdf="http://www.w3.org/1999/02/22-rdf-syntax-ns#"
   xmlns:svg="http://www.w3.org/2000/svg"
   xmlns="http://www.w3.org/2000/svg"
   xmlns:sodipodi="http://sodipodi.sourceforge.net/DTD/sodipodi-0.dtd"
   xmlns:inkscape="http://www.inkscape.org/namespaces/inkscape"
   width="744.09448819"
   height="1052.3622047"
   id="svg2414"
   sodipodi:version="0.32"
   inkscape:version="0.46"
   sodipodi:docname="play.svg"
   inkscape:output_extension="org.inkscape.output.svg.inkscape">
  <defs
     id="defs2416">
    <inkscape:perspective
       sodipodi:type="inkscape:persp3d"
       inkscape:vp_x="0 : 526.18109 : 1"
       inkscape:vp_y="0 : 1000 : 0"
       inkscape:vp_z="744.09448 : 526.18109 : 1"
       inkscape:persp3d-origin="372.04724 : 350.78739 : 1"
       id="perspective2422" />
  </defs>
  <sodipodi:namedview
     id="base"
     pagecolor="#ffffff"
     bordercolor="#666666"
     borderopacity="1.0"
     gridtolerance="10000"
     guidetolerance="10"
     objecttolerance="10"
     inkscape:pageopacity="0.0"
     inkscape:pageshadow="2"
     inkscape:zoom="0.35"
     inkscape:cx="375"
     inkscape:cy="520"
     inkscape:document-units="px"
     inkscape:current-layer="layer1"
     showgrid="false" />
  <metadata
     id="metadata2419">
    <rdf:RDF>
      <cc:Work
         rdf:about="">
        <dc:format>image/svg+xml</dc:format>
        <dc:type
           rdf:resource="http://purl.org/dc/dcmitype/StillImage" />
      </cc:Work>
    </rdf:RDF>
  </metadata>
  <g
     inkscape:label="Layer 1"
     inkscape:groupmode="layer"
     id="layer1">
    <g
       id="g4548"
       transform="matrix(7.1724616e-2,0,0,7.1724616e-2,38.595554,124.60598)"
       inkscape:export-filename="/home/alban/share/projects/kolaka.org/bonnes-ondes/trunk/templates/radioxfam/media/play.png"
       inkscape:export-xdpi="72.912979"
       inkscape:export-ydpi="72.912979">
      <path
         transform="matrix(0.9994686,0,0,0.9994686,455.53508,-488.98717)"
         d="M -65.454529,5.818182 A 205.09091,205.09091 0 1 1 -475.63635,5.818182 A 205.09091,205.09091 0 1 1 -65.454529,5.818182 z"
         sodipodi:ry="205.09091"
         sodipodi:rx="205.09091"
         sodipodi:cy="5.818182"
         sodipodi:cx="-270.54544"
         id="path4504"
         style="opacity:1;fill:#98cb00;fill-opacity:1;stroke:#98cb00;stroke-width:20.28495026;stroke-linecap:round;stroke-miterlimit:4;stroke-dasharray:none;stroke-opacity:1"
         sodipodi:type="arc" />
      <path
         style="fill:#ffffff;fill-opacity:1;stroke:#98cb00;stroke-width:3.5999999;stroke-miterlimit:4;stroke-dasharray:none;stroke-opacity:1"
         d="M 165.97816,-279.08762 C 120.47587,-283.54441 75.601552,-303.63732 45.003362,-333.25523 C 37.545472,-340.4742 37.146512,-341.06853 38.898542,-342.34964 C 42.558672,-345.02599 39.830222,-349.26076 21.437872,-369.44997 C 14.748492,-376.79287 6.9901115,-388.53733 3.8781215,-396.03152 C 2.6219715,-399.05652 0.6681015,-403.31417 -0.4638085,-405.49296 C -1.5957285,-407.67175 -2.5218385,-410.01899 -2.5218385,-410.70903 C -2.5218385,-411.99601 -3.6273885,-414.70618 -8.7723081,-426.03152 C -11.758548,-432.60505 -15.511948,-445.60053 -15.533648,-449.44148 C -15.540138,-450.591 -16.445378,-455.13152 -17.545278,-459.53152 C -18.899248,-464.94789 -19.753018,-472.77039 -20.188888,-483.75326 C -20.765978,-498.29421 -20.661158,-500.04083 -19.177258,-500.61025 C -17.326828,-501.32033 -16.979778,-504.08945 -18.545038,-505.65472 C -19.652188,-506.76187 -19.211128,-509.51119 -14.874998,-528.53152 C -12.268908,-539.96303 -8.3420481,-552.51395 -5.8693385,-557.31513 C -4.9516085,-559.09705 -3.3487885,-560.31613 -1.4152385,-560.70284 C 0.4302315,-561.07193 2.8066915,-562.80198 4.6936715,-565.15007 C 7.9267615,-569.17321 10.543342,-570.56772 14.100152,-570.16325 C 15.272862,-570.02989 16.489042,-570.61748 16.818762,-571.47673 C 17.479842,-573.19948 21.156012,-573.52067 23.469802,-572.05785 C 24.657762,-571.3068 24.708662,-570.86202 23.719802,-569.87316 C 23.036902,-569.19026 22.478162,-568.12202 22.478162,-567.4993 C 22.478162,-566.11478 29.115712,-563.95521 31.068242,-564.70446 C 32.669382,-565.31887 33.003592,-568.03152 31.478162,-568.03152 C 30.928162,-568.03152 30.478162,-569.65098 30.478162,-571.63031 C 30.478162,-574.37621 31.223312,-575.92517 33.622332,-578.16619 C 36.427532,-580.78664 36.643142,-581.37401 35.622332,-583.61445 C 34.114472,-586.92383 34.142122,-587.03152 36.499602,-587.03152 C 37.754042,-587.03152 38.965712,-585.98808 39.692962,-584.28152 C 41.400452,-580.27478 43.532512,-578.03152 45.633152,-578.03152 C 47.801242,-578.03152 48.122092,-575.4926 46.054272,-574.6991 C 45.271132,-574.39858 42.839902,-573.02242 40.651532,-571.64097 L 36.672682,-569.12923 L 38.716732,-563.58037 C 39.840962,-560.5285 41.138052,-558.03152 41.599152,-558.03152 C 43.240332,-558.03152 46.649622,-566.21223 46.032742,-568.67008 C 45.542302,-570.62414 46.382442,-572.03104 50.496532,-576.14513 C 53.371032,-579.01963 55.818102,-582.48121 56.150482,-584.1431 C 56.472782,-585.75462 57.128362,-587.31533 57.607322,-587.61135 C 58.086282,-587.90736 58.478162,-589.40645 58.478162,-590.94265 C 58.478162,-593.65113 59.352782,-595.13554 66.228162,-604.09599 C 69.989242,-608.99767 70.464542,-611.52273 67.479162,-610.74203 C 63.947102,-609.81838 64.043042,-612.28537 67.662402,-615.45395 C 71.825162,-619.09825 75.478162,-624.91519 75.478162,-627.89955 C 75.478162,-630.78582 73.725852,-630.54161 69.050022,-627.0037 C 66.889542,-625.369 64.712152,-624.03152 64.211372,-624.03152 C 63.710592,-624.03152 60.988442,-622.00867 58.162152,-619.53629 C 54.651332,-616.46512 52.446672,-615.22413 51.202812,-615.61891 C 50.201462,-615.93673 48.717902,-615.64545 47.906012,-614.97164 C 47.094112,-614.29782 46.119592,-614.05676 45.740412,-614.43594 C 45.361222,-614.81512 46.722102,-616.65631 48.764572,-618.52746 C 50.807052,-620.39861 52.478162,-622.60013 52.478162,-623.41972 C 52.478162,-624.8176 57.094232,-630.84877 63.188652,-637.41361 C 67.313242,-641.85656 71.566262,-644.02368 76.169142,-644.02778 C 80.811672,-644.03192 82.235682,-642.90509 79.967152,-641.02238 C 78.271952,-639.61549 77.987612,-636.45273 79.473742,-635.53425 C 80.021312,-635.19583 81.483812,-635.96148 82.723742,-637.23568 C 86.751432,-641.3747 88.206282,-642.13786 90.818942,-641.48213 C 93.082272,-640.91407 93.234602,-640.59107 92.254082,-638.43907 C 91.133622,-635.97993 90.891612,-635.85997 86.377212,-635.52613 C 82.715202,-635.25533 81.478162,-634.26582 81.478162,-631.60736 C 81.478162,-630.33899 80.547462,-628.11805 79.409952,-626.67193 C 76.927792,-623.51638 75.268302,-618.27926 76.507812,-617.51319 C 77.894952,-616.65589 84.427262,-619.75418 86.518022,-622.26105 C 87.559502,-623.50981 88.426592,-623.96902 88.444892,-623.28152 C 88.480062,-621.95999 91.259882,-621.62679 93.875688,-622.63057 C 94.734288,-622.96005 96.436998,-625.23235 97.659468,-627.68012 C 99.108258,-630.58103 101.24049,-632.89403 103.78337,-634.32321 C 106.05784,-635.60154 108.48399,-638.08278 109.6017,-640.27367 C 110.65611,-642.34049 111.89395,-644.03152 112.35246,-644.03152 C 114.61942,-644.03152 118.48302,-649.13902 118.55711,-652.23377 L 118.63605,-655.53152 L 119.64044,-652.78152 C 120.58928,-650.1836 123.24987,-649.13657 124.84619,-650.73288 C 125.90785,-651.79454 133.47816,-651.97329 133.47816,-650.93669 C 133.47816,-650.43885 132.8729,-650.03152 132.13315,-650.03152 C 129.78684,-650.03152 127.50624,-646.64016 128.16318,-644.128 C 128.67173,-642.1833 127.50286,-640.58896 121.09108,-634.48161 C 116.86633,-630.45747 112.63762,-627.00401 111.69394,-626.80727 C 110.59994,-626.57918 110.06449,-625.64902 110.21637,-624.24053 C 110.385,-622.67679 109.91777,-622.03152 108.61685,-622.03152 C 101.37849,-622.03152 84.934882,-601.21321 87.099132,-594.78916 C 87.517452,-593.54746 87.886372,-591.86388 87.918942,-591.04788 C 88.034292,-588.15791 91.567712,-588.93269 96.620658,-592.95591 C 99.435978,-595.19749 102.17817,-597.03152 102.71443,-597.03152 C 103.25069,-597.03152 105.02643,-598.15652 106.66053,-599.53152 C 108.96084,-601.4671 110.75796,-602.03152 114.62063,-602.03152 C 117.36459,-602.03152 120.59256,-602.57871 121.7939,-603.24749 C 122.99524,-603.91628 127.43527,-604.73402 131.66064,-605.0647 C 137.80944,-605.54591 140.13718,-606.21622 143.32072,-608.42242 C 145.50841,-609.93848 147.56995,-612.26109 147.90192,-613.58377 C 148.23691,-614.91847 150.94691,-617.79221 153.99183,-620.04162 C 157.16746,-622.3876 159.47816,-624.86588 159.47816,-625.92585 C 159.47816,-626.93303 162.40316,-630.75496 165.97816,-634.41903 C 172.82786,-641.43937 173.39887,-642.46423 170.97816,-643.39315 C 170.15316,-643.70973 169.47816,-644.85736 169.47816,-645.94343 C 169.47816,-648.92716 165.64513,-651.03152 160.21034,-651.03152 L 155.38753,-651.03152 L 156.03522,-654.48396 C 156.62392,-657.62205 156.37765,-658.12397 153.33053,-659.99627 C 151.48673,-661.1292 148.29066,-662.33312 146.22816,-662.67164 C 142.83153,-663.22914 142.47672,-663.58135 142.46285,-666.40933 C 142.4417,-670.72183 141.14941,-672.44032 138.45706,-671.73625 C 136.39537,-671.19711 130.47816,-674.38462 130.47816,-676.03437 C 130.47816,-677.475 137.73879,-679.92906 148.01027,-681.96016 C 154.04261,-683.153 163.02816,-684.99904 167.97816,-686.06245 C 177.9676,-688.2085 183.98963,-688.12697 202.73193,-685.59188 C 210.7138,-684.51225 216.24948,-683.16695 219.98193,-681.39972 C 225.27733,-678.89247 227.30051,-676.03152 223.77816,-676.03152 C 222.47778,-676.03152 222.35387,-675.75581 223.25103,-674.85865 C 224.13951,-673.97017 225.03536,-673.96437 226.9456,-674.83473 C 231.75333,-677.02528 239.47816,-674.35118 239.47816,-670.49634 C 239.47816,-668.99837 240.05275,-668.03152 240.94298,-668.03152 C 242.45724,-668.03152 245.15904,-664.10686 243.76334,-663.93463 C 243.33149,-663.88134 241.28977,-663.91581 239.22617,-664.01124 C 236.80426,-664.12324 235.28374,-663.68845 234.93696,-662.78474 C 234.63797,-662.0056 232.97582,-661.36026 231.18894,-661.32955 C 222.53619,-661.18081 217.70755,-657.55011 223.94422,-655.88217 C 226.15711,-655.29035 227.75868,-655.58949 230.25138,-657.06022 C 232.08898,-658.14444 234.10806,-659.03152 234.73821,-659.03152 C 236.04033,-659.03152 253.47816,-641.1835 253.47816,-639.85075 C 253.47816,-639.37295 252.33505,-638.54741 250.93792,-638.01622 C 248.82976,-637.2147 248.57078,-636.72697 249.41538,-635.14883 C 250.43158,-633.25005 254.53258,-629.57138 258.0942,-627.36379 C 259.8311,-626.2872 259.72447,-626.10394 256.72816,-625.01596 C 253.67815,-623.90849 252.26308,-622.03152 254.47816,-622.03152 C 256.24537,-622.03152 255.54397,-619.13711 253.51341,-618.05039 C 252.4328,-617.47206 251.00592,-615.18736 250.34256,-612.97327 C 249.22722,-609.25061 248.92355,-608.99442 246.30731,-609.56905 C 242.84987,-610.32843 242.51112,-608.45254 245.48624,-605.0222 C 247.31267,-602.91631 247.35351,-602.55126 245.93768,-600.98679 C 244.94209,-599.88668 244.60556,-598.3721 245.00398,-596.78465 C 245.45015,-595.00697 245.16216,-594.12424 243.98917,-593.67412 C 243.08839,-593.32846 242.63148,-592.59247 242.97379,-592.03858 C 244.38794,-589.75045 239.32331,-591.2503 236.57988,-593.93209 C 233.19749,-597.23848 233.47654,-598.03152 238.02238,-598.03152 C 242.0705,-598.03152 244.3011,-600.33501 242.43285,-602.58612 C 240.2873,-605.17135 237.87816,-606.0299 229.94815,-607.03532 C 225.77799,-607.56405 221.42588,-608.65516 220.27678,-609.46002 C 217.54033,-611.3767 212.72847,-610.46322 209.42344,-607.39962 C 208.01835,-606.09716 206.33085,-605.03152 205.67344,-605.03152 C 205.01604,-605.03152 204.47816,-604.57854 204.47816,-604.02491 C 204.47816,-603.47127 203.3871,-602.06963 202.05358,-600.91015 C 200.70237,-599.73529 199.87363,-598.16452 200.18157,-597.36203 C 200.48549,-596.57004 200.02492,-594.48418 199.15808,-592.72678 C 198.29124,-590.96939 197.29819,-588.18152 196.9513,-586.53152 C 196.55449,-584.64403 193.93937,-581.24011 189.89938,-577.35249 C 186.36771,-573.95403 183.47816,-570.4408 183.47816,-569.54531 C 183.47816,-566.91449 185.68246,-558.63933 186.74493,-557.28152 C 188.19131,-555.4331 190.92421,-555.76193 192.97816,-558.03152 C 195.03969,-560.30948 198.47816,-560.70931 198.47816,-558.67107 C 198.47816,-557.92282 199.65172,-555.58128 201.08606,-553.46765 L 203.69397,-549.62469 L 201.33606,-547.70609 L 198.97816,-545.78748 L 198.66779,-549.4095 C 198.43472,-552.12953 197.9049,-553.03152 196.54024,-553.03152 C 193.43117,-553.03152 191.97816,-550.0634 191.97816,-543.71241 C 191.97816,-537.77687 191.95513,-537.72974 188.47816,-536.55003 C 186.33786,-535.82383 183.97058,-533.88407 182.38455,-531.5569 C 180.95807,-529.46382 178.57996,-527.11679 177.09985,-526.34129 C 174.40923,-524.93153 174.4088,-524.9319 174.64442,-528.4306 C 174.7905,-530.59968 174.23349,-532.6444 173.17913,-533.80946 C 172.24359,-534.84321 171.47816,-536.15538 171.47816,-536.7254 C 171.47816,-537.29542 170.64222,-538.83499 169.62052,-540.14666 C 168.59881,-541.45833 167.16912,-544.18939 166.44343,-546.21569 C 165.35294,-549.26059 165.35218,-550.1748 166.43909,-551.48444 C 167.53754,-552.808 167.48435,-553.3672 166.11617,-554.87902 C 165.21527,-555.87451 164.47816,-557.21607 164.47816,-557.86026 C 164.47816,-559.89304 159.91875,-559.12941 157.65247,-556.71707 C 156.4566,-555.44412 155.47816,-553.24908 155.47816,-551.83919 C 155.47816,-548.59596 157.88346,-542.76996 159.92038,-541.07947 C 162.06634,-539.29848 161.87114,-537.29102 159.47816,-536.53152 C 158.37816,-536.18239 157.47816,-535.05363 157.47816,-534.02315 C 157.47816,-532.99267 157.02651,-531.87042 156.47449,-531.52925 C 155.92247,-531.18809 155.73393,-529.86062 156.05552,-528.57933 C 156.3771,-527.29804 156.15375,-525.94906 155.55919,-525.5816 C 154.96462,-525.21414 154.47816,-524.32775 154.47816,-523.61185 C 154.47816,-522.60303 156.67151,-522.40554 164.22816,-522.73395 L 173.97816,-523.15768 L 171.16785,-520.59069 C 169.16226,-518.75875 167.68593,-518.19225 166.01213,-518.61235 C 164.20849,-519.06503 163.51083,-518.7098 162.99179,-517.07447 C 162.50367,-515.53654 161.78561,-515.11655 160.39751,-515.55712 C 157.80125,-516.38114 154.47816,-515.21909 154.47816,-513.48719 C 154.47816,-512.71193 155.58048,-511.35536 156.92776,-510.47259 C 162.48197,-506.83333 164.9801,-498.5141 162.16503,-493.03152 C 160.68382,-490.14674 158.37289,-490.09228 147.35668,-492.68254 C 138.2523,-494.82327 136.47816,-493.84886 136.47816,-486.70778 C 136.47816,-483.46254 135.72814,-479.98329 134.51608,-477.60589 C 133.02324,-474.67777 132.70128,-472.65418 133.16986,-469.14445 C 133.82924,-464.20548 134.74779,-463.071 138.10684,-463.04683 C 139.52755,-463.03661 140.65403,-462.02115 141.49388,-459.99358 C 143.3311,-455.55812 140.58601,-450.88872 134.53297,-448.15309 C 129.45888,-445.85988 126.27737,-441.61014 125.47816,-436.058 C 125.07874,-433.28322 124.1735,-432.12984 120.97816,-430.32445 C 118.77816,-429.08143 116.07816,-428.04484 114.97816,-428.02091 C 112.74373,-427.97231 106.49067,-422.54397 103.78117,-418.30071 C 102.80863,-416.77766 101.30216,-415.00273 100.43346,-414.35644 C 99.564758,-413.71015 97.608178,-411.38365 96.085518,-409.18644 C 93.345172,-405.23212 93.328742,-405.11428 94.468898,-397.59259 C 95.595068,-390.16322 94.895058,-384.6678 92.421262,-381.51753 C 91.983332,-380.95984 91.878702,-377.70585 92.188762,-374.28646 C 92.741012,-368.1961 92.881692,-367.94719 99.090018,-362.0754 C 102.57565,-358.77872 105.70102,-354.99174 106.0353,-353.65989 C 106.69503,-351.03131 122.06286,-338.93 127.7136,-336.58944 C 129.50911,-335.84573 134.35316,-335.2515 138.47816,-335.26892 C 142.60316,-335.28633 147.89247,-334.77221 150.23219,-334.12642 C 153.65339,-333.18213 155.91261,-333.24689 161.77219,-334.45722 C 165.77948,-335.28495 171.87443,-336.0734 175.31652,-336.20934 C 181.25451,-336.44384 181.7339,-336.28634 184.68153,-333.13238 C 187.69052,-329.91277 187.96801,-329.82861 193.50817,-330.45541 C 199.35292,-331.11666 204.49303,-329.78675 204.4631,-327.621 C 204.4437,-326.2166 202.20861,-319.91692 201.13397,-318.23772 C 200.02285,-316.50149 201.67674,-314.68112 207.31301,-311.43671 C 212.79082,-308.28352 216.39176,-304.35677 216.4422,-301.48152 C 216.46198,-300.35402 216.94934,-298.96034 217.52523,-298.38445 C 218.25466,-297.65502 217.20559,-296.30505 214.0671,-293.93445 C 207.2632,-288.79523 207.07413,-286.93394 213.10024,-284.41607 C 219.71833,-281.65085 217.39724,-280.62227 200.97816,-279.04422 C 189.52441,-277.9434 177.50813,-277.9583 165.97816,-279.08762 z M 149.97469,-531.46562 C 152.39041,-532.47498 153.58865,-533.73373 154.02037,-535.71562 C 154.35773,-537.26437 155.11658,-539.52868 155.70669,-540.74743 C 156.99487,-543.40786 155.30451,-546.03152 152.30229,-546.03152 C 149.02887,-546.03152 143.47822,-540.87912 143.47819,-537.84054 C 143.47817,-536.3605 143.02816,-534.87144 142.47816,-534.53152 C 141.92816,-534.1916 141.47816,-533.04004 141.47816,-531.9725 C 141.47816,-529.5821 144.96844,-529.37388 149.97469,-531.46562 z M 146.47816,-585.41401 C 149.26885,-586.68237 150.27324,-590.36858 148.43248,-592.58656 C 147.74815,-593.41112 145.4949,-594.03152 143.18446,-594.03152 C 140.79951,-594.03152 138.37441,-594.72043 137.28327,-595.70789 C 134.94689,-597.82229 133.88087,-596.74391 133.01082,-591.38593 C 132.44512,-587.90219 132.68463,-586.91708 134.51102,-585.21553 C 136.83969,-583.04605 141.43584,-583.12227 146.47816,-585.41401 z M 248.19156,-622.67171 C 248.37767,-623.23006 247.40794,-624.19811 246.0366,-624.82294 C 242.31003,-626.52088 237.47816,-633.74019 237.47816,-637.61013 C 237.47816,-640.94121 235.04035,-644.497 233.43627,-643.50563 C 232.95192,-643.20628 232.26325,-641.40286 231.9059,-639.49801 C 231.34601,-636.51356 231.85919,-635.13652 235.61716,-629.53935 C 238.6641,-625.00122 240.88212,-622.76949 242.97816,-622.13288 C 246.4078,-621.09122 247.70958,-621.22577 248.19156,-622.67171 z M 199.38112,-629.59149 C 199.90849,-629.26556 200.6034,-629.42514 200.92537,-629.94611 C 201.24735,-630.46708 201.03964,-631.18451 200.46379,-631.5404 C 199.83701,-631.92778 199.68522,-633.6183 200.08559,-635.75248 C 200.71857,-639.12656 200.6265,-639.28741 198.36627,-638.75592 C 193.55444,-637.62443 187.97816,-635.191 187.97816,-634.22265 C 187.97816,-633.6755 189.51504,-631.53892 191.39345,-629.47469 L 194.80874,-625.72154 L 196.61551,-627.95281 C 197.60924,-629.18001 198.85376,-629.91742 199.38112,-629.59149 z M 217.71285,-644.40715 C 219.20888,-646.69669 218.42882,-648.03152 215.59479,-648.03152 C 213.75054,-648.03152 212.48897,-647.40085 212.09415,-646.28152 C 211.75465,-645.31902 211.19884,-643.92155 210.85902,-643.17604 C 210.37312,-642.11003 210.96053,-641.97669 213.60967,-642.55167 C 215.46234,-642.95378 217.30877,-643.78875 217.71285,-644.40715 z M 304.97816,-319.03152 C 305.97365,-320.13152 307.01314,-321.03152 307.28814,-321.03152 C 307.56314,-321.03152 306.97365,-320.13152 305.97816,-319.03152 C 304.98267,-317.93152 303.94318,-317.03152 303.66818,-317.03152 C 303.39318,-317.03152 303.98267,-317.93152 304.97816,-319.03152 z M 310.21687,-324.53152 C 311.31874,-326.73152 312.5241,-331.00652 312.89546,-334.03152 C 313.49284,-338.89772 314.54776,-340.85674 322.0498,-351.03152 C 326.71334,-357.35652 332.80721,-365.43545 335.59173,-368.98471 C 345.86512,-382.07953 355.78789,-407.86796 351.55878,-410.48169 C 351.05312,-410.79421 350.04062,-410.41357 349.30878,-409.63583 C 341.71187,-401.56248 333.97516,-394.03152 333.27815,-394.03152 C 330.61109,-394.03152 332.13536,-397.33966 337.43731,-403.0582 C 344.46121,-410.634 354.47816,-424.99521 354.47816,-427.48953 C 354.47816,-428.44282 355.37199,-430.47805 356.46446,-432.01228 C 360.11685,-437.14159 362.47406,-444.13217 364.12449,-454.72899 C 365.93584,-466.35906 365.7298,-466.98631 360.0884,-467.01621 C 358.49904,-467.02463 356.60085,-467.81902 355.87021,-468.78152 C 354.04636,-471.18414 354.14706,-471.58097 356.62808,-471.76786 C 359.34888,-471.97281 364.82496,-477.2412 368.06647,-482.77242 C 370.60156,-487.09823 372.19217,-487.91751 374.18551,-485.92417 C 374.79455,-485.31513 376.76763,-484.5152 378.57013,-484.14655 C 381.66003,-483.51459 382.00459,-482.99285 384.59704,-475.0203 C 386.80028,-468.24471 387.27424,-465.17003 386.98212,-459.54792 C 386.04706,-441.55235 377.94207,-414.3321 366.92278,-392.17954 C 355.48966,-369.19506 342.92059,-352.06567 326.83023,-337.54059 C 321.96159,-333.14557 316.80403,-328.42057 315.36897,-327.04059 C 313.93392,-325.6606 311.73687,-323.63152 310.48663,-322.53152 L 308.21348,-320.53152 L 310.21687,-324.53152 z M 291.47816,-336.99256 C 291.47816,-338.36948 295.6123,-342.03152 297.16672,-342.03152 C 299.12291,-342.03152 298.75917,-340.64414 296.16371,-338.20583 C 293.74605,-335.93456 291.47816,-335.34731 291.47816,-336.99256 z M 323.11302,-402.1041 C 321.66385,-403.24402 320.47816,-403.86447 320.47816,-403.48288 C 320.47816,-403.10128 318.22816,-405.14817 315.47816,-408.03152 C 312.5364,-411.11592 310.47816,-414.19308 310.47816,-415.50672 C 310.47816,-417.44671 309.06879,-419.3513 304.53989,-423.53152 C 302.75286,-425.18097 294.47816,-436.32633 294.47816,-437.08387 C 294.47816,-437.47039 295.21558,-438.39863 296.11687,-439.14664 C 297.55711,-440.34193 298.37462,-439.83262 302.86687,-434.94135 C 305.67808,-431.88044 308.77755,-429.0831 309.75459,-428.72503 C 310.73163,-428.36697 312.39222,-426.06492 313.44479,-423.60937 C 314.58179,-420.95685 316.49901,-418.53088 318.16836,-417.63235 C 322.19693,-415.46396 324.77676,-412.26971 327.28367,-406.34614 C 328.49064,-403.49418 329.47816,-400.90668 329.47816,-400.59614 C 329.47816,-399.26403 325.5364,-400.19786 323.11302,-402.1041 z M 232.73688,-437.03738 C 229.30417,-437.9108 225.89895,-439.44138 225.16971,-440.43867 C 224.24406,-441.70458 221.902,-442.45756 217.41099,-442.93312 C 210.46451,-443.66871 204.61575,-446.56911 206.42681,-448.38017 C 207.71495,-449.66831 207.81804,-454.70343 206.57204,-455.4735 C 206.07367,-455.78151 205.89782,-456.92032 206.18126,-458.00419 C 206.92853,-460.86176 202.57352,-462.72234 198.77322,-461.16912 C 197.23594,-460.54081 190.79915,-459.83431 184.46925,-459.59912 C 173.20285,-459.1805 165.61641,-457.52719 160.74669,-454.42927 C 159.13814,-453.40597 156.97723,-453.19045 153.00575,-453.65722 C 143.25142,-454.80365 142.97869,-459.11165 152.6401,-459.4329 C 160.72628,-459.70178 166.47816,-464.47125 166.47816,-470.90744 C 166.47816,-473.81152 167.92565,-475.42896 174.89521,-480.31274 C 176.29328,-481.29241 177.82324,-483.54241 178.29511,-485.31274 C 179.12262,-488.4173 179.32154,-488.52261 183.90073,-488.28051 C 187.82673,-488.07295 189.38092,-488.55556 192.88095,-491.06909 C 197.38505,-494.30369 199.95515,-494.25473 201.01542,-490.91412 C 202.00388,-487.79976 208.36744,-482.23234 213.87557,-479.66289 C 219.94795,-476.83022 223.47816,-473.66444 223.47816,-471.05158 C 223.47816,-468.56856 221.95461,-467.69782 216.48957,-467.05746 C 210.12254,-466.31142 209.90745,-463.79679 216.01128,-461.46572 C 219.88179,-459.98756 220.79187,-459.92108 221.49876,-461.06485 C 221.96485,-461.819 222.12666,-462.79125 221.85833,-463.22541 C 221.59001,-463.65957 222.83854,-465.84161 224.63286,-468.0744 C 227.42247,-471.5457 227.72011,-472.41445 226.6867,-474.06919 C 224.97279,-476.81361 225.1107,-477.03152 228.56149,-477.03152 C 230.57693,-477.03152 231.50492,-477.46445 231.24088,-478.28152 C 230.68866,-479.99032 219.93718,-486.03152 217.44824,-486.03152 C 216.9534,-486.03152 216.02627,-487.04402 215.38797,-488.28152 C 214.74966,-489.51902 212.90161,-491.77308 211.28119,-493.29053 C 208.42572,-495.96458 207.85024,-498.9903 210.05737,-499.72506 C 210.65094,-499.92266 213.12594,-498.3333 215.55737,-496.19316 C 217.98881,-494.05302 222.32649,-491.29182 225.19667,-490.05716 C 231.14711,-487.49747 232.37851,-486.31142 233.07534,-482.46862 C 233.34824,-480.96367 235.35052,-477.71131 237.52484,-475.24115 C 239.69917,-472.77098 241.47816,-470.30358 241.47816,-469.75803 C 241.47816,-468.19357 245.59454,-465.03152 247.63117,-465.03152 C 248.77134,-465.03152 249.47816,-465.75003 249.47816,-466.90908 C 249.47816,-467.94173 250.15316,-469.34683 250.97816,-470.03152 C 253.04732,-471.74877 252.85499,-473.75948 250.50108,-475.01925 C 249.41368,-475.60121 248.04493,-476.9725 247.45941,-478.06656 C 246.57629,-479.71669 246.87068,-480.47446 249.18649,-482.51204 C 253.22148,-486.06226 254.72151,-485.64799 256.88601,-480.38562 C 259.45732,-474.1342 263.5206,-470.44026 268.74465,-469.6049 C 272.32193,-469.03287 273.23972,-469.25378 274.68112,-471.03384 C 276.05886,-472.73527 277.05185,-473.01452 279.85463,-472.48872 C 282.7858,-471.93882 283.67292,-472.2403 285.58099,-474.43477 C 288.60623,-477.91411 290.19809,-477.70537 291.30853,-473.68372 C 292.39833,-469.73675 291.65205,-456.06985 290.2505,-454.30798 C 289.71518,-453.63504 287.63491,-452.79875 285.62768,-452.44956 C 283.62044,-452.10038 280.37252,-450.734 278.41008,-449.41317 C 275.31559,-447.33041 273.57029,-446.99134 265.26075,-446.85857 C 259.55091,-446.76734 254.46812,-447.20725 252.68152,-447.94729 C 250.21051,-448.97081 249.1817,-448.92957 246.82849,-447.71268 C 242.33174,-445.38732 240.15318,-442.4625 240.84997,-439.68624 C 241.79682,-435.91371 239.76293,-435.24966 232.73688,-437.03738 z M 259.22816,-460.28152 C 258.99899,-460.96902 258.51149,-461.41902 258.14483,-461.28152 C 257.77816,-461.14402 256.7766,-461.03152 255.91914,-461.03152 C 255.06168,-461.03152 254.63824,-460.58152 254.97816,-460.03152 C 255.88516,-458.56396 259.72538,-458.78986 259.22816,-460.28152 z M 286.29771,-468.79174 C 286.64895,-471.25363 285.54032,-471.69368 283.67816,-469.83152 C 281.88671,-468.04007 282.22221,-465.83609 284.22816,-466.21841 C 285.19066,-466.40186 286.12196,-467.55985 286.29771,-468.79174 z M 200.6404,-472.53152 C 201.77051,-476.73749 200.78867,-479.21682 198.14227,-478.83982 C 196.49697,-478.60543 195.90133,-477.72956 195.6577,-475.18632 C 195.48145,-473.34647 195.59259,-471.17571 195.90468,-470.36242 C 196.83015,-467.95067 199.77156,-469.29793 200.6404,-472.53152 z M 178.24899,-471.84402 C 178.4667,-472.49714 177.93233,-473.03152 177.06149,-473.03152 C 176.19066,-473.03152 175.47816,-472.31902 175.47816,-471.44819 C 175.47816,-469.68226 177.63092,-469.9898 178.24899,-471.84402 z M 199.47816,-484.03152 C 199.47816,-485.14263 198.81149,-486.03152 197.97816,-486.03152 C 196.45575,-486.03152 195.9269,-483.91612 197.14483,-482.69819 C 198.41262,-481.4304 199.47816,-482.03928 199.47816,-484.03152 z M 345.60582,-460.3777 C 344.96094,-461.15473 343.10746,-462.05566 341.48698,-462.37976 C 338.14107,-463.04894 334.47816,-466.28034 334.47816,-468.5629 C 334.47816,-471.11022 337.41834,-471.43635 339.84349,-469.15803 C 342.26348,-466.88458 346.42792,-466.39908 349.48321,-468.03422 C 352.33442,-469.56015 352.89735,-467.54307 350.80034,-463.31468 C 348.73207,-459.14423 347.30102,-458.33511 345.60582,-460.3777 z M 261.56373,-492.76114 C 259.38367,-494.52645 259.35266,-494.81132 260.45998,-502.89874 C 261.72271,-512.12117 262.91091,-516.03152 264.45053,-516.03152 C 265.01256,-516.03152 267.27047,-514.40707 269.46811,-512.42163 L 273.46382,-508.81175 L 276.87322,-511.80524 C 279.91402,-514.47509 280.69861,-514.71166 284.13039,-513.99335 C 293.90242,-511.94795 299.31036,-508.36376 297.95474,-504.83107 C 296.91831,-502.1302 289.25804,-499.0307 285.23348,-499.6838 C 280.00173,-500.5328 276.57008,-499.37781 273.056,-495.58523 C 269.15139,-491.37118 264.64718,-490.26432 261.56373,-492.76114 z M 322.72675,-503.28152 C 322.17878,-503.96902 321.42469,-506.64519 321.05097,-509.22856 C 320.43484,-513.48771 319.92498,-514.20035 315.58191,-516.87266 C 308.14887,-521.44626 302.85083,-532.03152 307.99474,-532.03152 C 308.86338,-532.03152 310.56501,-530.93132 311.77613,-529.58663 C 312.98724,-528.24194 315.53552,-526.30062 317.43896,-525.27257 C 320.8483,-523.4312 324.94044,-518.57194 330.01848,-510.33489 C 332.12317,-506.92088 332.40071,-505.75533 331.50672,-504.08489 C 330.24792,-501.7328 324.38847,-501.19666 322.72675,-503.28152 z M 275.99093,-517.01085 C 275.14449,-518.38042 277.26463,-522.03152 278.90635,-522.03152 C 281.13938,-522.03152 281.79212,-518.73426 279.84146,-517.3079 C 277.74736,-515.77666 276.79892,-515.7035 275.99093,-517.01085 z M 207.88305,-540.18541 C 207.51683,-540.77797 205.78043,-541.0177 203.97581,-540.72485 L 200.72772,-540.19776 L 202.96761,-542.61464 C 204.19955,-543.94392 205.73252,-545.03152 206.37422,-545.03152 C 207.01591,-545.03152 207.81318,-545.74099 208.14593,-546.60812 C 208.47868,-547.47526 209.79553,-548.58188 211.07226,-549.0673 C 213.17806,-549.86792 213.34105,-550.39471 212.82767,-554.74069 C 212.35115,-558.77463 212.59481,-559.83248 214.36995,-561.43651 C 217.25799,-564.04615 217.01568,-565.7022 213.47816,-567.53152 C 210.9351,-568.84659 210.47816,-569.66769 210.47816,-572.92234 C 210.47816,-575.36621 211.27938,-577.78039 212.68244,-579.56409 C 213.8948,-581.10535 214.97267,-583.60775 215.07771,-585.12498 C 215.33046,-588.77579 216.20074,-590.03152 218.47816,-590.03152 C 221.35862,-590.03152 221.52216,-588.83757 219.30603,-583.98726 C 217.55475,-580.15434 217.4245,-578.93545 218.37417,-575.26717 C 218.98137,-572.92178 219.47816,-570.15742 219.47816,-569.12416 C 219.47816,-565.9518 222.11933,-565.99135 228.45436,-569.25857 C 233.2873,-571.75111 234.77175,-572.13441 235.75001,-571.14235 C 236.72285,-570.15579 236.57463,-569.59905 235.03703,-568.4642 C 233.96941,-567.67623 232.08957,-567.03152 230.85961,-567.03152 C 229.61226,-567.03152 227.66459,-565.81541 226.45534,-564.28152 C 224.41215,-561.68981 224.39358,-561.51094 226.13276,-561.17391 C 230.78713,-560.27197 231.89231,-557.03152 227.54555,-557.03152 C 224.19969,-557.03152 222.99852,-554.79073 224.06551,-550.53952 C 225.06174,-546.5702 222.70972,-542.75659 219.72712,-543.50517 C 218.2496,-543.87601 216.37365,-543.40084 214.67724,-542.22608 C 210.9054,-539.61409 208.65406,-538.93788 207.88305,-540.18541 z M 238.67816,-574.23152 C 237.0889,-575.82078 237.14708,-578.03152 238.77816,-578.03152 C 240.45047,-578.03152 242.47816,-576.00383 242.47816,-574.33152 C 242.47816,-572.70044 240.26742,-572.64226 238.67816,-574.23152 z M 244.97816,-581.03152 C 244.63824,-581.58152 244.81013,-582.03152 245.36013,-582.03152 C 245.91013,-582.03152 246.63824,-581.58152 246.97816,-581.03152 C 247.31808,-580.48152 247.14619,-580.03152 246.59619,-580.03152 C 246.04619,-580.03152 245.31808,-580.48152 244.97816,-581.03152 z M 22.498222,-597.55569 C 23.193942,-598.39398 23.969102,-598.87392 24.220802,-598.62222 C 24.914292,-597.92872 23.505252,-596.03152 22.296702,-596.03152 C 21.633602,-596.03152 21.709472,-596.6053 22.498222,-597.55569 z M 30.453792,-610.94654 C 31.660632,-615.15456 32.207882,-615.7018 33.708462,-614.20122 C 34.637762,-613.27192 34.300042,-612.39885 32.198282,-610.29709 L 29.491132,-607.58994 L 30.453792,-610.94654 z M 41.478162,-610.85006 C 41.478162,-612.05861 43.375362,-613.46765 44.068862,-612.77416 C 44.320562,-612.52246 43.840622,-611.7473 43.002332,-611.05158 C 42.051942,-610.26283 41.478162,-610.18696 41.478162,-610.85006 z M 100.47816,-648.85006 C 100.47816,-650.05861 102.37536,-651.46765 103.06886,-650.77416 C 103.32056,-650.52246 102.84062,-649.7473 102.00233,-649.05158 C 101.05194,-648.26283 100.47816,-648.18697 100.47816,-648.85006 z M 110.47816,-656.53152 C 109.79347,-657.35652 108.50087,-658.03841 107.60572,-658.04683 C 106.18959,-658.06016 106.17302,-658.18807 107.47816,-659.03152 C 109.39873,-660.27269 112.777,-660.32407 112.02087,-659.10062 C 111.70443,-658.58862 111.90288,-657.88707 112.46185,-657.5416 C 113.70823,-656.7713 113.8044,-655.03152 112.6006,-655.03152 C 112.11795,-655.03152 111.16285,-655.70652 110.47816,-656.53152 z M 132.47816,-661.62123 C 132.47816,-663.94443 135.74305,-667.91019 137.72816,-667.99825 C 139.32695,-668.06917 138.37439,-665.04635 136.47816,-664.03152 C 135.37816,-663.44282 134.47816,-662.07699 134.47816,-660.99634 C 134.47816,-659.91569 134.02816,-659.03152 133.47816,-659.03152 C 132.92816,-659.03152 132.47816,-660.19689 132.47816,-661.62123 z M 121.89046,-661.39948 C 121.24966,-663.06937 125.19124,-668.03152 127.1585,-668.03152 C 129.56501,-668.03152 128.52516,-664.44238 125.46266,-662.17818 C 122.9995,-660.35709 122.34519,-660.21446 121.89046,-661.39948 z M 122.47816,-671.4725 C 122.47816,-671.71504 122.92816,-672.1916 123.47816,-672.53152 C 124.02816,-672.87144 124.47816,-672.673 124.47816,-672.09054 C 124.47816,-671.50808 124.02816,-671.03152 123.47816,-671.03152 C 122.92816,-671.03152 122.47816,-671.22996 122.47816,-671.4725 z"
         id="path4546" />
    </g>
    <path
       style="fill:#ffffff;fill-opacity:1;fill-rule:evenodd;stroke:#ffffff;stroke-width:1.32414722;stroke-linecap:round;stroke-linejoin:round;stroke-miterlimit:4;stroke-dasharray:none;stroke-opacity:1"
       d="M 56.611984,80.703374 L 56.611984,100.09267 L 75.045685,89.449966 L 56.611984,80.703374 z"
       id="path3201"
       inkscape:export-filename="/home/alban/share/projects/kolaka.org/bonnes-ondes/trunk/templates/radioxfam/media/play.png"
       inkscape:export-xdpi="72.912979"
       inkscape:export-ydpi="72.912979" />
    <path
       style="fill:#ffffff;fill-opacity:1;fill-rule:evenodd;stroke:#98cb00;stroke-width:1.25264907;stroke-linecap:round;stroke-linejoin:round;stroke-miterlimit:4;stroke-dasharray:none;stroke-opacity:1"
       d="M 57.109652,81.226843 L 57.109652,99.569203 L 74.548017,89.501159 L 57.109652,81.226843 z"
       id="path2427"
       inkscape:export-filename="/home/alban/share/projects/kolaka.org/bonnes-ondes/trunk/templates/radioxfam/media/play.png"
       inkscape:export-xdpi="72.912979"
       inkscape:export-ydpi="72.912979" />
  </g>
</svg>
